<?xml version="1.0" encoding="utf-8"?>
<!-- Generator: Adobe Illustrator 16.0.0, SVG Export Plug-In . SVG Version: 6.00 Build 0)  -->
<!DOCTYPE svg PUBLIC "-//W3C//DTD SVG 1.1//EN" "http://www.w3.org/Graphics/SVG/1.1/DTD/svg11.dtd">
<svg version="1.1" xmlns="http://www.w3.org/2000/svg" xmlns:xlink="http://www.w3.org/1999/xlink" x="0px" y="0px" width="600px"
	 height="229.438px" viewBox="0 0 600 229.438" enable-background="new 0 0 600 229.438" xml:space="preserve">
<g id="black">
</g>
<g id="white">
	<path id="_x5D__1_" fill="#FFFFFF" d="M561.571,0.016H600v229.422h-38.429v-11.842h24.498V11.858h-24.498V0.016z"/>
	<path id="dot_1_" fill="#FFFFFF" d="M551.187,188.919h-18.862v-19.532h18.862V188.919z"/>
	<path id="t_1_" fill="#FFFFFF" d="M495.16,30.149v30.857h24.237v17.26H495.16v77.673c0,5.986,1.245,10.204,3.727,12.647
		c2.488,2.44,5.77,3.667,9.872,3.667c1.338,0,2.817-0.161,4.438-0.474c1.61-0.317,3.045-0.71,4.31-1.18l3.075,15.954
		c-1.738,1.426-4.273,2.584-7.624,3.488c-3.355,0.909-6.72,1.361-10.107,1.361c-9.458,0-16.99-2.854-22.582-8.57
		c-5.594-5.717-8.395-14.684-8.395-26.895V78.267h-20.334v-17.26h20.334V30.149H495.16z"/>
	<path id="s_1_" fill="#FFFFFF" d="M422.859,154.874c0-5.126-1.949-9.338-5.849-12.65c-3.904-3.311-11.292-6.189-22.169-8.63
		c-15.524-3.388-27.213-7.966-35.055-13.752c-7.845-5.781-11.762-13.674-11.762-23.668c0-10.385,4.41-19.235,13.24-26.557
		c8.829-7.32,20.336-10.976,34.522-10.976c14.895,0,26.734,3.821,35.529,11.469c8.783,7.641,12.979,16.941,12.587,27.898
		l-0.234,0.71H421.44c0-5.598-2.345-10.622-7.032-15.075c-4.688-4.45-10.897-6.677-18.62-6.677c-8.277,0-14.425,1.811-18.443,5.436
		c-4.02,3.624-6.028,7.999-6.028,13.124c0,5.041,1.771,9.025,5.318,11.943c3.544,2.91,10.759,5.512,21.636,7.8
		c16.157,3.468,28.176,8.177,36.06,14.125c7.879,5.957,11.822,13.933,11.822,23.943c0,11.353-4.595,20.532-13.771,27.544
		c-9.184,7.016-21.186,10.523-36.002,10.523c-16.316,0-29.167-4.14-38.541-12.411c-9.378-8.277-13.835-17.933-13.359-28.966
		l0.234-0.712h22.229c0.393,8.233,3.464,14.255,9.218,18.057c5.759,3.808,12.497,5.71,20.219,5.71
		c8.275,0,14.759-1.673,19.449-5.028C420.516,164.706,422.859,160.31,422.859,154.874z"/>
	<path id="e_1_" fill="#FFFFFF" d="M286.957,191.404c-17.811,0-31.979-5.934-42.498-17.792
		c-10.522-11.862-15.783-27.249-15.783-46.167v-5.199c0-18.206,5.416-33.359,16.253-45.459
		c10.839-12.096,23.665-18.146,38.481-18.146c17.264,0,30.308,5.202,39.133,15.607c8.827,10.403,13.242,24.272,13.242,41.615v14.539
		h-82.993l-0.355,0.586c0.237,12.266,3.352,22.348,9.341,30.242c5.99,7.899,14.385,11.853,25.18,11.853
		c7.881,0,14.796-1.13,20.75-3.374c5.947-2.248,11.094-5.337,15.427-9.275l9.105,15.144c-4.575,4.525-10.601,8.292-18.09,11.3
		C306.66,189.896,297.598,191.404,286.957,191.404z M283.41,76.966c-7.802,0-14.463,3.276-19.979,9.834
		c-5.517,6.56-8.905,14.789-10.167,24.685l0.238,0.592h58.993v-3.064c0-9.113-2.444-16.731-7.33-22.86
		C300.277,80.028,293.027,76.966,283.41,76.966z"/>
	<path id="w_1_" fill="#FFFFFF" d="M97.701,142.341l2.721,15.489h0.709l3.309-15.489l25.539-81.335h18.678l25.654,81.335
		l3.665,17.264h0.71l3.428-17.264l20.098-81.335h23.172l-37.121,127.913h-18.799l-24.708-77.907l-5.32-21.753l-0.71,0.121
		l-5.082,21.632l-24.354,77.907H90.49L53.368,61.006h23.171L97.701,142.341z"/>
	<path id="_x5B__1_" fill="#FFFFFF" d="M38.314,11.858H13.934v205.737h24.381v11.842H0V0.016h38.314V11.858z"/>
</g>
</svg>
