<?xml version="1.0" encoding="utf-8"?>
<!-- Generator: Adobe Illustrator 16.0.0, SVG Export Plug-In . SVG Version: 6.00 Build 0)  -->
<!DOCTYPE svg PUBLIC "-//W3C//DTD SVG 1.1//EN" "http://www.w3.org/Graphics/SVG/1.1/DTD/svg11.dtd">
<svg version="1.1" xmlns="http://www.w3.org/2000/svg" xmlns:xlink="http://www.w3.org/1999/xlink" x="0px" y="0px" width="600px"
	 height="600px" viewBox="0 0 600 600" enable-background="new 0 0 600 600" xml:space="preserve">
<g id="black">
	<path id="_x5D_" d="M493.229,202.877H520v159.831h-26.771v-8.249h17.066V211.128h-17.066V202.877z"/>
	<path id="dot" d="M481.957,335.39H468.13v-14.318h13.827V335.39z"/>
	<path id="t" d="M440.729,218.999v22.621h17.768v12.653h-17.768v56.939c0,4.39,0.912,7.481,2.731,9.272
		c1.823,1.789,4.229,2.688,7.237,2.688c0.98,0,2.064-0.117,3.252-0.348c1.182-0.232,2.233-0.521,3.16-0.865l2.255,11.696
		c-1.274,1.045-3.134,1.894-5.59,2.558c-2.46,0.666-4.926,0.998-7.41,0.998c-6.933,0-12.454-2.094-16.555-6.283
		c-4.1-4.191-6.153-10.764-6.153-19.717v-56.939h-14.905v-12.653h14.905v-22.621H440.729z"/>
	<path id="s" d="M385.517,310.433c0-3.759-1.428-6.847-4.286-9.274c-2.862-2.427-8.278-4.537-16.252-6.326
		c-11.381-2.484-19.95-5.841-25.697-10.082c-5.752-4.239-8.624-10.024-8.624-17.351c0-7.613,3.234-14.101,9.707-19.468
		c6.473-5.366,14.907-8.046,25.308-8.046c10.919,0,19.599,2.801,26.046,8.407c6.439,5.602,9.515,12.42,9.227,20.452l-0.172,0.521
		h-16.295c0-4.105-1.72-7.787-5.156-11.052c-3.436-3.262-7.988-4.895-13.649-4.895c-6.068,0-10.574,1.327-13.521,3.985
		c-2.947,2.656-4.419,5.863-4.419,9.621c0,3.695,1.299,6.615,3.898,8.754c2.599,2.134,7.887,4.042,15.861,5.719
		c11.844,2.542,20.654,5.995,26.434,10.354c5.776,4.366,8.667,10.214,8.667,17.553c0,8.321-3.367,15.05-10.096,20.192
		c-6.732,5.143-15.53,7.714-26.392,7.714c-11.961,0-21.382-3.034-28.254-9.099c-6.875-6.068-10.143-13.146-9.793-21.234l0.172-0.521
		h16.295c0.288,6.035,2.54,10.449,6.758,13.236c4.221,2.791,9.161,4.186,14.822,4.186c6.066,0,10.818-1.227,14.257-3.686
		C383.799,317.639,385.517,314.417,385.517,310.433z"/>
	<path id="e" d="M284.629,337.212c-13.058,0-23.444-4.35-31.155-13.044c-7.714-8.695-11.571-19.976-11.571-33.844v-3.812
		c0-13.346,3.971-24.454,11.915-33.325c7.945-8.867,17.348-13.302,28.21-13.302c12.655,0,22.218,3.813,28.688,11.441
		c6.471,7.626,9.708,17.793,9.708,30.506v10.659h-60.841l-0.261,0.429c0.174,8.991,2.457,16.382,6.848,22.17
		c4.391,5.79,10.545,8.688,18.459,8.688c5.777,0,10.846-0.828,15.21-2.473c4.36-1.647,8.133-3.913,11.311-6.8l6.674,11.102
		c-3.354,3.316-7.771,6.079-13.262,8.284C299.073,336.106,292.429,337.212,284.629,337.212z M282.028,253.319
		c-5.719,0-10.602,2.401-14.646,7.209c-4.043,4.809-6.528,10.841-7.453,18.096l0.174,0.434h43.247v-2.247
		c0-6.68-1.792-12.265-5.374-16.758C294.394,255.564,289.079,253.319,282.028,253.319z"/>
	<path id="w" d="M148.679,301.244l1.995,11.355h0.52l2.426-11.355l18.721-59.625h13.693l18.807,59.625l2.687,12.655h0.52
		l2.513-12.655l14.733-59.625h16.987l-27.213,93.771h-13.78l-18.114-57.112l-3.9-15.946l-0.52,0.087l-3.726,15.859l-17.854,57.112
		h-13.781l-27.213-93.771h16.986L148.679,301.244z"/>
	<path id="_x5B_" d="M106.692,211.128H89.707v143.331h16.985v8.249H80V202.877h26.692V211.128z"/>
</g>
<g id="white">
</g>
</svg>
