<?xml version="1.0" encoding="utf-8"?>
<!-- Generator: Adobe Illustrator 16.0.0, SVG Export Plug-In . SVG Version: 6.00 Build 0)  -->
<!DOCTYPE svg PUBLIC "-//W3C//DTD SVG 1.1//EN" "http://www.w3.org/Graphics/SVG/1.1/DTD/svg11.dtd">
<svg version="1.1" xmlns="http://www.w3.org/2000/svg" xmlns:xlink="http://www.w3.org/1999/xlink" x="0px" y="0px" width="600px"
	 height="600px" viewBox="0 0 600 600" enable-background="new 0 0 600 600" xml:space="preserve">
<g id="black">
</g>
<g id="white">
	<path id="_x5D__2_" fill="#FFFFFF" d="M493.544,202.319h26.791v159.956h-26.791v-8.255h17.079V210.577h-17.079V202.319z"/>
	<path id="dot_2_" fill="#FFFFFF" d="M482.263,334.937h-13.838v-14.331h13.838V334.937z"/>
	<path id="t_2_" fill="#FFFFFF" d="M441.003,218.454v22.638h17.781v12.664h-17.781v56.984c0,4.394,0.912,7.487,2.733,9.279
		c1.825,1.79,4.232,2.691,7.243,2.691c0.98,0,2.066-0.117,3.254-0.348c1.184-0.232,2.236-0.521,3.163-0.867l2.256,11.707
		c-1.275,1.045-3.136,1.894-5.594,2.559c-2.461,0.667-4.93,0.998-7.416,0.998c-6.938,0-12.464-2.095-16.567-6.288
		c-4.103-4.193-6.158-10.771-6.158-19.731v-56.984H409v-12.664h14.917v-22.638H441.003z"/>
	<path id="s_2_" fill="#FFFFFF" d="M385.748,309.959c0-3.762-1.431-6.852-4.29-9.281c-2.865-2.429-8.285-4.541-16.266-6.331
		c-11.391-2.486-19.966-5.847-25.719-10.09c-5.756-4.243-8.629-10.033-8.629-17.365c0-7.619,3.236-14.112,9.714-19.483
		c6.478-5.371,14.918-8.053,25.327-8.053c10.927,0,19.614,2.804,26.066,8.414c6.446,5.607,9.522,12.43,9.235,20.468l-0.174,0.521
		h-16.307c0-4.108-1.723-7.792-5.161-11.061c-3.438-3.264-7.994-4.898-13.66-4.898c-6.072,0-10.582,1.329-13.531,3.988
		c-2.948,2.658-4.423,5.868-4.423,9.629c0,3.698,1.3,6.62,3.902,8.761c2.602,2.137,7.894,4.044,15.873,5.723
		c11.853,2.544,20.67,6,26.455,10.363c5.782,4.369,8.674,10.222,8.674,17.566c0,8.327-3.37,15.062-10.104,20.209
		c-6.737,5.146-15.542,7.719-26.411,7.719c-11.973,0-21.399-3.036-28.277-9.105c-6.881-6.071-10.149-13.155-9.802-21.251
		l0.172-0.521h16.309c0.288,6.041,2.542,10.458,6.763,13.247c4.224,2.794,9.169,4.189,14.836,4.189
		c6.071,0,10.825-1.229,14.267-3.688C384.026,317.17,385.748,313.947,385.748,309.959z"/>
	<path id="e_2_" fill="#FFFFFF" d="M284.779,336.759c-13.067,0-23.462-4.352-31.18-13.054c-7.722-8.702-11.58-19.99-11.58-33.87
		v-3.815c0-13.356,3.976-24.474,11.925-33.351c7.952-8.875,17.361-13.312,28.231-13.312c12.666,0,22.236,3.816,28.711,11.449
		c6.478,7.633,9.717,17.81,9.717,30.532v10.667h-60.89l-0.262,0.429c0.175,8.999,2.459,16.395,6.854,22.188
		c4.395,5.795,10.553,8.695,18.474,8.695c5.783,0,10.855-0.829,15.224-2.475c4.363-1.649,8.139-3.917,11.318-6.807l6.68,11.11
		c-3.355,3.32-7.778,6.085-13.272,8.291C299.235,335.654,292.585,336.759,284.779,336.759z M282.176,252.801
		c-5.724,0-10.608,2.404-14.657,7.216c-4.046,4.812-6.532,10.85-7.459,18.11l0.176,0.435h43.278v-2.249
		c0-6.686-1.792-12.275-5.378-16.771C294.553,255.048,289.233,252.801,282.176,252.801z"/>
	<path id="w_2_" fill="#FFFFFF" d="M148.724,300.764l1.995,11.364h0.52l2.429-11.364l18.736-59.672h13.703l18.821,59.672
		l2.689,12.665h0.521l2.515-12.665l14.746-59.672h17l-27.235,93.845h-13.791l-18.128-57.157l-3.903-15.959l-0.521,0.088
		l-3.729,15.871l-17.867,57.157h-13.792l-27.233-93.845h17L148.724,300.764z"/>
	<path id="_x5B__2_" fill="#FFFFFF" d="M106.702,210.577H89.704v143.443h16.998v8.255H79.989V202.319h26.713V210.577z"/>
</g>
</svg>
